<?xml version="1.0" encoding="UTF-8"?>
<!DOCTYPE svg PUBLIC "-//W3C//DTD SVG 1.1//EN" "http://www.w3.org/Graphics/SVG/1.1/DTD/svg11.dtd">
<svg xmlns="http://www.w3.org/2000/svg" version="1.1" width="828px" height="976px" style="shape-rendering:geometricPrecision; text-rendering:geometricPrecision; image-rendering:optimizeQuality; fill-rule:evenodd; clip-rule:evenodd" xmlns:xlink="http://www.w3.org/1999/xlink">
<g><path style="opacity:0.828" fill="#ffe3df" d="M 699.5,606.5 C 698.85,606.196 698.183,605.863 697.5,605.5C 682.167,489.667 665.667,374.001 648,258.5C 641.953,218.264 634.619,178.264 626,138.5C 624.618,129.332 621.118,121.166 615.5,114C 605.326,107.717 594.326,103.383 582.5,101C 549.68,96.2652 516.68,93.5985 483.5,93C 463.354,89.1905 450.521,77.3572 445,57.5C 444.006,52.882 443.506,48.2153 443.5,43.5C 416.167,43.5 388.833,43.5 361.5,43.5C 361.035,60.0767 355.035,74.2434 343.5,86C 335.207,90.8299 326.207,92.6632 316.5,91.5C 294.012,90.2229 271.512,89.2229 249,88.5C 234.951,87.9802 221.118,89.4802 207.5,93C 187.973,97.86 175.807,110.027 171,129.5C 167.459,147.078 164.459,164.745 162,182.5C 146.767,325.86 135.1,469.527 127,613.5C 126.392,615.066 125.558,616.4 124.5,617.5C 130.724,505.363 138.891,393.363 149,281.5C 152.944,234.95 158.61,188.617 166,142.5C 167.377,129.364 171.71,117.364 179,106.5C 188.989,97.0895 200.822,91.2561 214.5,89C 226.781,87.2171 239.114,86.0504 251.5,85.5C 274.509,86.5422 297.509,87.8755 320.5,89.5C 332.019,90.6747 341.186,86.6747 348,77.5C 355.386,66.2927 359.22,53.9594 359.5,40.5C 388.5,40.5 417.5,40.5 446.5,40.5C 445.339,65.703 456.673,82.203 480.5,90C 503.842,91.1737 527.175,92.507 550.5,94C 568.259,95.1818 585.592,98.5151 602.5,104C 612.427,107.035 619.594,113.201 624,122.5C 629.686,142.929 634.353,163.596 638,184.5C 661.439,324.742 681.939,465.409 699.5,606.5 Z"/></g>
<g><path style="opacity:0.998" fill="#feecea" d="M 699.5,606.5 C 701.929,612.441 704.929,618.108 708.5,623.5C 720.684,633.094 732.684,642.928 744.5,653C 751.987,665.162 760.987,676.162 771.5,686C 769.057,689.555 765.723,690.888 761.5,690C 750.862,683.433 740.029,677.266 729,671.5C 728.098,671.743 727.265,672.077 726.5,672.5C 723.205,670.186 719.538,668.352 715.5,667C 709.962,661.434 705.795,654.934 703,647.5C 703.74,660.833 710.24,670 722.5,675C 724.134,675.494 725.801,675.66 727.5,675.5C 732.068,702.911 737.068,730.244 742.5,757.5C 739.176,764.443 734.342,765.776 728,761.5C 723.288,743.318 717.954,725.318 712,707.5C 712.67,727.871 714.17,748.204 716.5,768.5C 716.077,775.423 712.411,778.589 705.5,778C 703,776.833 701.167,775 700,772.5C 696.573,751.513 693.24,730.513 690,709.5C 689.717,727.375 690.55,745.208 692.5,763C 693.094,768.334 690.761,771.168 685.5,771.5C 683.029,771.205 680.863,770.205 679,768.5C 676.559,748.082 673.559,727.749 670,707.5C 668.997,722.547 667.664,737.547 666,752.5C 662.254,756.393 658.588,756.393 655,752.5C 653.834,736.524 653.001,720.524 652.5,704.5C 653.771,686.148 655.271,667.815 657,649.5C 660.006,641.981 662.506,634.314 664.5,626.5C 665.622,624.712 665.789,622.712 665,620.5C 642.473,547.586 619.14,474.92 595,402.5C 584.92,373.258 574.254,344.258 563,315.5C 559.011,306.852 554.511,298.519 549.5,290.5C 554.502,261.826 559.502,233.16 564.5,204.5C 562.533,204.261 560.699,204.594 559,205.5C 555.39,233.492 551.89,261.492 548.5,289.5C 547.21,290.058 546.377,291.058 546,292.5C 539.521,329.001 534.187,365.667 530,402.5C 529.333,418.5 529.333,434.5 530,450.5C 536.74,516.015 546.74,581.015 560,645.5C 561.917,664.951 562.751,684.451 562.5,704C 562.058,728.499 561.725,752.999 561.5,777.5C 514.788,780.265 468.121,783.599 421.5,787.5C 419.636,761.62 416.136,735.954 411,710.5C 410.736,703.23 407.07,699.897 400,700.5C 397.05,700.568 394.383,701.234 392,702.5C 386.559,728.813 381.226,755.146 376,781.5C 375.885,784.008 374.885,786.008 373,787.5C 327.558,780.413 282.058,773.746 236.5,767.5C 236.333,728.499 236.5,689.499 237,650.5C 257.314,557.759 263.647,464.093 256,369.5C 254.224,353.735 251.891,338.068 249,322.5C 247.394,312.729 244.894,303.396 241.5,294.5C 238.448,267.133 235.114,239.799 231.5,212.5C 229.5,212.5 227.5,212.5 225.5,212.5C 231.141,240.04 236.141,267.707 240.5,295.5C 240.421,296.93 240.754,298.264 241.5,299.5C 240.081,301.336 238.914,303.336 238,305.5C 223.103,358.421 209.77,411.754 198,465.5C 186.285,517.792 174.785,570.126 163.5,622.5C 163.623,623.925 163.957,625.258 164.5,626.5C 166.697,633.904 169.197,641.237 172,648.5C 176.674,683.06 177.674,717.726 175,752.5C 171,756.5 167,756.5 163,752.5C 161.887,738.137 160.554,723.804 159,709.5C 155.754,729.135 152.754,748.801 150,768.5C 145.291,772.769 140.958,772.436 137,767.5C 137.951,750.022 139.117,732.522 140.5,715C 140.167,713.167 139.833,711.333 139.5,709.5C 136.048,730.833 132.548,752.166 129,773.5C 125.378,778.862 120.878,779.696 115.5,776C 113.703,774.406 112.703,772.406 112.5,770C 115.133,749.567 116.633,729.067 117,708.5C 111.381,725.642 106.381,742.975 102,760.5C 97.3333,765.833 92.6667,765.833 88,760.5C 87.3333,757.833 87.3333,755.167 88,752.5C 92.6447,726.778 97.478,701.111 102.5,675.5C 109.337,674.507 115.17,671.507 120,666.5C 123.56,659.821 125.893,652.821 127,645.5C 124.446,652.276 121.113,658.609 117,664.5C 112.124,667.275 107.29,669.942 102.5,672.5C 98.95,671.735 95.6167,672.569 92.5,675C 84.5,680 76.5,685 68.5,690C 64.3847,690.907 61.0513,689.74 58.5,686.5C 64.147,679.685 69.9804,673.019 76,666.5C 78.1899,662.924 80.1899,659.257 82,655.5C 94.21,644.955 106.71,634.788 119.5,625C 121.389,622.618 123.055,620.118 124.5,617.5C 125.558,616.4 126.392,615.066 127,613.5C 135.1,469.527 146.767,325.86 162,182.5C 164.459,164.745 167.459,147.078 171,129.5C 175.807,110.027 187.973,97.86 207.5,93C 221.118,89.4802 234.951,87.9802 249,88.5C 271.512,89.2229 294.012,90.2229 316.5,91.5C 326.207,92.6632 335.207,90.8299 343.5,86C 355.035,74.2434 361.035,60.0767 361.5,43.5C 388.833,43.5 416.167,43.5 443.5,43.5C 443.506,48.2153 444.006,52.882 445,57.5C 450.521,77.3572 463.354,89.1905 483.5,93C 516.68,93.5985 549.68,96.2652 582.5,101C 594.326,103.383 605.326,107.717 615.5,114C 621.118,121.166 624.618,129.332 626,138.5C 634.619,178.264 641.953,218.264 648,258.5C 665.667,374.001 682.167,489.667 697.5,605.5C 698.183,605.863 698.85,606.196 699.5,606.5 Z"/></g>
<g><path style="opacity:1" fill="#fcccc2" d="M 250.5,113.5 C 284.962,118.927 319.629,124.76 354.5,131C 339.167,131.667 323.833,131.667 308.5,131C 289.256,124.878 269.922,119.045 250.5,113.5 Z"/></g>
<g><path style="opacity:1" fill="#fcccc2" d="M 552.5,112.5 C 554.199,112.34 555.866,112.506 557.5,113C 537.683,118.537 518.017,124.537 498.5,131C 483.167,131.667 467.833,131.667 452.5,131C 485.986,124.921 519.319,118.755 552.5,112.5 Z"/></g>
<g><path style="opacity:1" fill="#fccdc4" d="M 549.5,290.5 C 548.833,290.5 548.5,290.167 548.5,289.5C 551.89,261.492 555.39,233.492 559,205.5C 560.699,204.594 562.533,204.261 564.5,204.5C 559.502,233.16 554.502,261.826 549.5,290.5 Z"/></g>
<g><path style="opacity:1" fill="#fcccc3" d="M 241.5,294.5 C 241.5,295.167 241.167,295.5 240.5,295.5C 236.141,267.707 231.141,240.04 225.5,212.5C 227.5,212.5 229.5,212.5 231.5,212.5C 235.114,239.799 238.448,267.133 241.5,294.5 Z"/></g>
<g><path style="opacity:1" fill="#fdd9d2" d="M 534.5,281.5 C 536.028,281.517 536.528,282.184 536,283.5C 523.848,296.332 510.015,306.832 494.5,315C 485.157,314.834 475.824,314.167 466.5,313C 446.782,309.911 427.116,306.577 407.5,303C 428.144,304.229 448.811,305.562 469.5,307C 483.76,309.882 496.76,307.215 508.5,299C 517.071,292.912 525.738,287.079 534.5,281.5 Z"/></g>
<g><path style="opacity:1" fill="#fdd9d2" d="M 253.5,282.5 C 267.668,291.145 282.002,299.645 296.5,308C 325.23,307.646 353.897,306.312 382.5,304C 357.989,308.863 333.322,312.863 308.5,316C 303.833,316.667 299.167,316.667 294.5,316C 279.57,307.41 266.07,296.91 254,284.5C 253.536,283.906 253.369,283.239 253.5,282.5 Z"/></g>
<g><path style="opacity:0.83" fill="#ffe3df" d="M 548.5,289.5 C 548.5,290.167 548.833,290.5 549.5,290.5C 554.511,298.519 559.011,306.852 563,315.5C 574.254,344.258 584.92,373.258 595,402.5C 619.14,474.92 642.473,547.586 665,620.5C 665.789,622.712 665.622,624.712 664.5,626.5C 639.276,545.657 613.109,464.99 586,384.5C 578.06,362.012 569.726,339.679 561,317.5C 557.78,309.392 553.78,301.726 549,294.5C 539.972,337.719 534.139,381.386 531.5,425.5C 535.235,479.817 541.735,533.817 551,587.5C 556.114,608.29 560.114,629.29 563,650.5C 564.062,668.321 564.895,686.155 565.5,704C 564.65,729.161 563.983,754.328 563.5,779.5C 515.914,782.72 468.414,786.387 421,790.5C 417.151,761.405 412.318,732.405 406.5,703.5C 402.003,702.945 397.836,703.611 394,705.5C 388.379,733.938 382.379,762.272 376,790.5C 328.581,783.178 281.081,776.178 233.5,769.5C 233.333,730.499 233.5,691.499 234,652.5C 254.792,558.421 261.125,463.421 253,367.5C 250.741,346.779 247.241,326.279 242.5,306C 241.833,304 241.167,304 240.5,306C 232.81,331.26 225.976,356.76 220,382.5C 201.15,463.888 182.65,545.221 164.5,626.5C 163.957,625.258 163.623,623.925 163.5,622.5C 174.785,570.126 186.285,517.792 198,465.5C 209.77,411.754 223.103,358.421 238,305.5C 238.914,303.336 240.081,301.336 241.5,299.5C 240.754,298.264 240.421,296.93 240.5,295.5C 241.167,295.5 241.5,295.167 241.5,294.5C 244.894,303.396 247.394,312.729 249,322.5C 251.891,338.068 254.224,353.735 256,369.5C 263.647,464.093 257.314,557.759 237,650.5C 236.5,689.499 236.333,728.499 236.5,767.5C 282.058,773.746 327.558,780.413 373,787.5C 374.885,786.008 375.885,784.008 376,781.5C 381.226,755.146 386.559,728.813 392,702.5C 394.383,701.234 397.05,700.568 400,700.5C 407.07,699.897 410.736,703.23 411,710.5C 416.136,735.954 419.636,761.62 421.5,787.5C 468.121,783.599 514.788,780.265 561.5,777.5C 561.725,752.999 562.058,728.499 562.5,704C 562.751,684.451 561.917,664.951 560,645.5C 546.74,581.015 536.74,516.015 530,450.5C 529.333,434.5 529.333,418.5 530,402.5C 534.187,365.667 539.521,329.001 546,292.5C 546.377,291.058 547.21,290.058 548.5,289.5 Z"/></g>
<g><path style="opacity:1" fill="#3074d8" d="M 446.5,376.5 C 445.833,376.5 445.167,376.5 444.5,376.5C 436.472,365.964 427.472,356.13 417.5,347C 413.828,344.162 409.828,341.829 405.5,340C 401.074,339.209 396.741,339.543 392.5,341C 388.138,343.844 383.805,346.677 379.5,349.5C 379.167,348.833 378.833,348.167 378.5,347.5C 383.468,343.009 389.135,339.509 395.5,337C 399.594,336.233 403.594,336.566 407.5,338C 423.685,347.686 436.685,360.519 446.5,376.5 Z"/></g>
<g><path style="opacity:1" fill="#fefefe" d="M 444.5,376.5 C 446.977,380.778 449.477,385.112 452,389.5C 453.318,392.406 453.652,395.406 453,398.5C 449.812,403.556 446.645,408.556 443.5,413.5C 433.197,425.979 423.031,438.645 413,451.5C 408.652,456.015 404.152,460.349 399.5,464.5C 391.118,458.118 383.785,450.785 377.5,442.5C 368.676,430.863 359.842,419.197 351,407.5C 348.274,403.381 346.107,399.048 344.5,394.5C 347.637,386.894 351.803,379.894 357,373.5C 364.338,365.329 371.838,357.329 379.5,349.5C 383.805,346.677 388.138,343.844 392.5,341C 396.741,339.543 401.074,339.209 405.5,340C 409.828,341.829 413.828,344.162 417.5,347C 427.472,356.13 436.472,365.964 444.5,376.5 Z"/></g>
<g><path style="opacity:1" fill="#3686de" d="M 378.5,347.5 C 378.833,348.167 379.167,348.833 379.5,349.5C 371.838,357.329 364.338,365.329 357,373.5C 351.803,379.894 347.637,386.894 344.5,394.5C 343.167,394.5 342.5,393.833 342.5,392.5C 351.378,375.119 363.378,360.119 378.5,347.5 Z"/></g>
<g><path style="opacity:1" fill="#3697e4" d="M 444.5,376.5 C 445.167,376.5 445.833,376.5 446.5,376.5C 451.508,381.677 454.841,387.843 456.5,395C 456.458,396.967 455.958,398.801 455,400.5C 451.97,405.015 448.803,409.349 445.5,413.5C 444.833,413.5 444.167,413.5 443.5,413.5C 446.645,408.556 449.812,403.556 453,398.5C 453.652,395.406 453.318,392.406 452,389.5C 449.477,385.112 446.977,380.778 444.5,376.5 Z"/></g>
<g><path style="opacity:1" fill="#2f74d8" d="M 348.5,422.5 C 348.158,423.338 347.492,423.672 346.5,423.5C 341.009,417.509 335.342,411.675 329.5,406C 324.672,405.371 320.005,406.038 315.5,408C 302.956,413.428 291.623,420.595 281.5,429.5C 280.508,429.672 279.842,429.338 279.5,428.5C 292.477,415.588 307.977,406.922 326,402.5C 327.967,402.542 329.801,403.042 331.5,404C 337.741,409.737 343.408,415.903 348.5,422.5 Z"/></g>
<g><path style="opacity:1" fill="#2b70d6" d="M 512.5,419.5 C 512.158,420.338 511.492,420.672 510.5,420.5C 498.047,413.278 484.713,408.278 470.5,405.5C 469.167,405.667 467.833,405.833 466.5,406C 463.635,409.692 460.635,413.192 457.5,416.5C 456.833,416.5 456.167,416.5 455.5,416.5C 458.206,411.614 461.539,407.114 465.5,403C 482.557,404.528 498.224,410.028 512.5,419.5 Z"/></g>
<g><path style="opacity:1" fill="#fdfefe" d="M 346.5,423.5 C 357.555,435.953 367.888,448.953 377.5,462.5C 378.614,463.885 379.614,465.385 380.5,467C 375.833,469.667 371.167,472.333 366.5,475C 357.882,481.764 351.882,490.264 348.5,500.5C 347.694,501.997 347.028,503.664 346.5,505.5C 323.512,507.85 300.512,508.016 277.5,506C 273.106,506.497 270.772,504.664 270.5,500.5C 270.694,490.455 271.36,480.455 272.5,470.5C 273.132,458.311 274.965,446.311 278,434.5C 278.997,432.677 280.164,431.01 281.5,429.5C 291.623,420.595 302.956,413.428 315.5,408C 320.005,406.038 324.672,405.371 329.5,406C 335.342,411.675 341.009,417.509 346.5,423.5 Z"/></g>
<g><path style="opacity:1" fill="#fdfefe" d="M 510.5,420.5 C 516.832,426.711 519.832,434.378 519.5,443.5C 520.899,452.494 522.233,461.494 523.5,470.5C 524.737,479.827 526.071,489.16 527.5,498.5C 527.46,500.429 527.127,502.262 526.5,504C 518.245,505.584 509.912,506.584 501.5,507C 485.17,507.5 468.837,507.667 452.5,507.5C 450.464,495.426 444.797,485.426 435.5,477.5C 431.769,472.809 427.435,468.809 422.5,465.5C 426.596,458.964 430.93,452.631 435.5,446.5C 443.188,436.804 450.521,426.804 457.5,416.5C 460.635,413.192 463.635,409.692 466.5,406C 467.833,405.833 469.167,405.667 470.5,405.5C 484.713,408.278 498.047,413.278 510.5,420.5 Z"/></g>
<g><path style="opacity:1" fill="#2981dd" d="M 512.5,419.5 C 515.168,421.336 517.334,423.669 519,426.5C 520.416,431.412 521.249,436.412 521.5,441.5C 521.5,442.833 520.833,443.5 519.5,443.5C 519.832,434.378 516.832,426.711 510.5,420.5C 511.492,420.672 512.158,420.338 512.5,419.5 Z"/></g>
<g><path style="opacity:1" fill="#37aaeb" d="M 342.5,392.5 C 342.5,393.833 343.167,394.5 344.5,394.5C 346.107,399.048 348.274,403.381 351,407.5C 359.842,419.197 368.676,430.863 377.5,442.5C 377.158,443.338 376.492,443.672 375.5,443.5C 363.036,429.189 351.87,413.856 342,397.5C 341.22,395.613 341.387,393.946 342.5,392.5 Z"/></g>
<g><path style="opacity:1" fill="#3186df" d="M 455.5,416.5 C 456.167,416.5 456.833,416.5 457.5,416.5C 450.521,426.804 443.188,436.804 435.5,446.5C 434.662,446.158 434.328,445.492 434.5,444.5C 440.738,434.596 447.738,425.262 455.5,416.5 Z"/></g>
<g><path style="opacity:1" fill="#308fe2" d="M 348.5,422.5 C 359.968,434.63 370.301,447.63 379.5,461.5C 379.158,462.338 378.492,462.672 377.5,462.5C 367.888,448.953 357.555,435.953 346.5,423.5C 347.492,423.672 348.158,423.338 348.5,422.5 Z"/></g>
<g><path style="opacity:1" fill="#3795e4" d="M 279.5,428.5 C 279.842,429.338 280.508,429.672 281.5,429.5C 280.164,431.01 278.997,432.677 278,434.5C 274.965,446.311 273.132,458.311 272.5,470.5C 270.656,468.721 269.99,466.388 270.5,463.5C 270.519,452.048 272.686,441.048 277,430.5C 277.708,429.619 278.542,428.953 279.5,428.5 Z"/></g>
<g><path style="opacity:1" fill="#38bcf2" d="M 443.5,413.5 C 444.167,413.5 444.833,413.5 445.5,413.5C 432.931,433.248 417.931,451.081 400.5,467C 398.711,467.52 397.044,467.187 395.5,466C 387.883,459.224 381.216,451.724 375.5,443.5C 376.492,443.672 377.158,443.338 377.5,442.5C 383.785,450.785 391.118,458.118 399.5,464.5C 404.152,460.349 408.652,456.015 413,451.5C 423.031,438.645 433.197,425.979 443.5,413.5 Z"/></g>
<g><path style="opacity:1" fill="#329be6" d="M 521.5,441.5 C 523.562,449.587 524.896,457.921 525.5,466.5C 525.66,468.199 525.494,469.866 525,471.5C 524.617,470.944 524.117,470.611 523.5,470.5C 522.233,461.494 520.899,452.494 519.5,443.5C 520.833,443.5 521.5,442.833 521.5,441.5 Z"/></g>
<g><path style="opacity:1" fill="#34a1e8" d="M 434.5,444.5 C 434.328,445.492 434.662,446.158 435.5,446.5C 430.93,452.631 426.596,458.964 422.5,465.5C 427.435,468.809 431.769,472.809 435.5,477.5C 434.508,477.328 433.842,477.662 433.5,478.5C 429.95,474.786 425.95,471.619 421.5,469C 420.196,468.196 419.529,467.029 419.5,465.5C 423.773,457.945 428.773,450.945 434.5,444.5 Z"/></g>
<g><path style="opacity:1" fill="#226ad5" d="M 421.5,482.5 C 421.672,483.492 421.338,484.158 420.5,484.5C 405.612,476.19 390.946,476.524 376.5,485.5C 375.833,485.167 375.167,484.833 374.5,484.5C 381.615,479.005 389.781,476.338 399,476.5C 407.057,476.555 414.557,478.555 421.5,482.5 Z"/></g>
<g><path style="opacity:1" fill="#fdfefe" d="M 420.5,484.5 C 431.087,491.662 437.087,501.662 438.5,514.5C 438.587,521.15 437.253,527.484 434.5,533.5C 418.343,555.359 398.343,559.525 374.5,546C 366.816,539.78 361.816,531.947 359.5,522.5C 358.433,506.973 364.1,494.64 376.5,485.5C 390.946,476.524 405.612,476.19 420.5,484.5 Z"/></g>
<g><path style="opacity:1" fill="#2bafee" d="M 270.5,463.5 C 269.99,466.388 270.656,468.721 272.5,470.5C 271.36,480.455 270.694,490.455 270.5,500.5C 269.71,501.609 269.21,502.942 269,504.5C 268.501,499.511 268.334,494.511 268.5,489.5C 268.689,480.648 269.355,471.981 270.5,463.5 Z"/></g>
<g><path style="opacity:1" fill="#3ab3ef" d="M 379.5,461.5 C 382.144,463.516 382.977,466.183 382,469.5C 367.671,475.996 357.171,486.329 350.5,500.5C 349.833,500.5 349.167,500.5 348.5,500.5C 351.882,490.264 357.882,481.764 366.5,475C 371.167,472.333 375.833,469.667 380.5,467C 379.614,465.385 378.614,463.885 377.5,462.5C 378.492,462.672 379.158,462.338 379.5,461.5 Z"/></g>
<g><path style="opacity:1" fill="#2b88e0" d="M 374.5,484.5 C 375.167,484.833 375.833,485.167 376.5,485.5C 364.1,494.64 358.433,506.973 359.5,522.5C 358.833,522.5 358.167,522.5 357.5,522.5C 355.612,506.288 361.279,493.621 374.5,484.5 Z"/></g>
<g><path style="opacity:1" fill="#2783de" d="M 421.5,482.5 C 432.026,488.552 438.359,497.552 440.5,509.5C 440.662,511.527 440.495,513.527 440,515.5C 439.617,514.944 439.117,514.611 438.5,514.5C 437.087,501.662 431.087,491.662 420.5,484.5C 421.338,484.158 421.672,483.492 421.5,482.5 Z"/></g>
<g><path style="opacity:1" fill="#47c6f4" d="M 268.5,489.5 C 268.334,494.511 268.501,499.511 269,504.5C 269.21,502.942 269.71,501.609 270.5,500.5C 270.772,504.664 273.106,506.497 277.5,506C 300.512,508.016 323.512,507.85 346.5,505.5C 347.028,503.664 347.694,501.997 348.5,500.5C 349.167,500.5 349.833,500.5 350.5,500.5C 350.38,503.48 349.713,506.313 348.5,509C 325.165,510.967 301.832,510.967 278.5,509C 274.611,508.938 271.111,507.771 268,505.5C 267.183,499.984 267.349,494.65 268.5,489.5 Z"/></g>
<g><path style="opacity:1" fill="#43c0f3" d="M 525.5,466.5 C 528.34,479.235 529.84,492.235 530,505.5C 525.797,507.676 521.297,508.842 516.5,509C 494.848,510.37 473.181,510.703 451.5,510C 448.482,497.797 442.482,487.297 433.5,478.5C 433.842,477.662 434.508,477.328 435.5,477.5C 444.797,485.426 450.464,495.426 452.5,507.5C 468.837,507.667 485.17,507.5 501.5,507C 509.912,506.584 518.245,505.584 526.5,504C 527.127,502.262 527.46,500.429 527.5,498.5C 526.071,489.16 524.737,479.827 523.5,470.5C 524.117,470.611 524.617,470.944 525,471.5C 525.494,469.866 525.66,468.199 525.5,466.5 Z"/></g>
<g><path style="opacity:1" fill="#1764d3" d="M 347.5,527.5 C 347.5,528.833 346.833,529.5 345.5,529.5C 345.5,528.5 345.5,527.5 345.5,526.5C 322.85,525.398 300.184,525.232 277.5,526C 274.905,526.226 272.405,526.726 270,527.5C 269.174,530.793 268.674,534.126 268.5,537.5C 266.824,536.817 266.157,535.483 266.5,533.5C 265.465,528.73 267.131,525.564 271.5,524C 295.167,523.333 318.833,523.333 342.5,524C 343.833,524.333 345.167,524.667 346.5,525C 347.252,525.671 347.586,526.504 347.5,527.5 Z"/></g>
<g><path style="opacity:1" fill="#1f67d4" d="M 530.5,542.5 C 529.778,542.918 529.278,543.584 529,544.5C 528.824,540.312 528.324,536.312 527.5,532.5C 527.739,530.533 527.406,528.699 526.5,527C 502.164,525.012 477.831,525.012 453.5,527C 452.748,527.671 452.414,528.504 452.5,529.5C 451.508,529.672 450.842,529.338 450.5,528.5C 450.137,526.089 451.137,524.589 453.5,524C 477.5,523.333 501.5,523.333 525.5,524C 527.848,524.11 529.348,525.277 530,527.5C 530.499,532.489 530.666,537.489 530.5,542.5 Z"/></g>
<g><path style="opacity:1" fill="#fdfefe" d="M 345.5,529.5 C 349.402,544.236 358.235,554.903 372,561.5C 371.549,563.52 370.716,565.52 369.5,567.5C 360.406,578.012 353.073,589.678 347.5,602.5C 344.072,610.17 341.238,618.17 339,626.5C 336.959,634.104 332.126,636.937 324.5,635C 311.599,628.929 300.599,620.429 291.5,609.5C 281.675,598.509 273.341,586.509 266.5,573.5C 266.312,561.445 266.979,549.445 268.5,537.5C 268.674,534.126 269.174,530.793 270,527.5C 272.405,526.726 274.905,526.226 277.5,526C 300.184,525.232 322.85,525.398 345.5,526.5C 345.5,527.5 345.5,528.5 345.5,529.5 Z"/></g>
<g><path style="opacity:1" fill="#35a6ea" d="M 440.5,509.5 C 442.008,518.462 440.675,527.129 436.5,535.5C 435.167,535.5 434.5,534.833 434.5,533.5C 437.253,527.484 438.587,521.15 438.5,514.5C 439.117,514.611 439.617,514.944 440,515.5C 440.495,513.527 440.662,511.527 440.5,509.5 Z"/></g>
<g><path style="opacity:1" fill="#fdfefe" d="M 527.5,532.5 C 527.993,544.311 526.993,555.977 524.5,567.5C 521.993,577.198 518.326,586.531 513.5,595.5C 505.823,606.357 497.156,616.524 487.5,626C 483.248,630.043 478.415,633.21 473,635.5C 471.739,635.241 470.739,634.574 470,633.5C 466.048,625.107 462.214,616.773 458.5,608.5C 453.26,594.017 444.593,582.017 432.5,572.5C 430.675,570.197 428.842,567.864 427,565.5C 426.333,564.5 426.333,563.5 427,562.5C 439.857,554.816 448.357,543.816 452.5,529.5C 452.414,528.504 452.748,527.671 453.5,527C 477.831,525.012 502.164,525.012 526.5,527C 527.406,528.699 527.739,530.533 527.5,532.5 Z"/></g>
<g><path style="opacity:1" fill="#3bc0f3" d="M 357.5,522.5 C 358.167,522.5 358.833,522.5 359.5,522.5C 361.816,531.947 366.816,539.78 374.5,546C 398.343,559.525 418.343,555.359 434.5,533.5C 434.5,534.833 435.167,535.5 436.5,535.5C 425.335,552.074 409.669,558.907 389.5,556C 372.139,551.141 361.473,539.974 357.5,522.5 Z"/></g>
<g><path style="opacity:1" fill="#3786de" d="M 266.5,533.5 C 266.157,535.483 266.824,536.817 268.5,537.5C 266.979,549.445 266.312,561.445 266.5,573.5C 265.833,573.5 265.167,573.5 264.5,573.5C 263.585,560.021 264.251,546.687 266.5,533.5 Z"/></g>
<g><path style="opacity:1" fill="#3082dd" d="M 347.5,527.5 C 351.673,542.519 360.839,553.519 375,560.5C 375.073,563.113 374.239,565.446 372.5,567.5C 371.5,567.5 370.5,567.5 369.5,567.5C 370.716,565.52 371.549,563.52 372,561.5C 358.235,554.903 349.402,544.236 345.5,529.5C 346.833,529.5 347.5,528.833 347.5,527.5 Z"/></g>
<g><path style="opacity:1" fill="#2d83dd" d="M 450.5,528.5 C 450.842,529.338 451.508,529.672 452.5,529.5C 448.357,543.816 439.857,554.816 427,562.5C 426.333,563.5 426.333,564.5 427,565.5C 428.842,567.864 430.675,570.197 432.5,572.5C 432.158,573.338 431.492,573.672 430.5,573.5C 428.901,571.396 427.068,569.396 425,567.5C 423.699,565.635 423.365,563.635 424,561.5C 436.81,553.541 445.643,542.541 450.5,528.5 Z"/></g>
<g><path style="opacity:1" fill="#2c84de" d="M 527.5,532.5 C 528.324,536.312 528.824,540.312 529,544.5C 529.278,543.584 529.778,542.918 530.5,542.5C 529.725,551.595 528.391,560.595 526.5,569.5C 525.167,569.5 524.5,568.833 524.5,567.5C 526.993,555.977 527.993,544.311 527.5,532.5 Z"/></g>
<g><path style="opacity:1" fill="#3175d8" d="M 433.5,591.5 C 433.158,592.338 432.492,592.672 431.5,592.5C 426.013,585.18 419.68,578.68 412.5,573C 407.338,569.388 401.671,568.054 395.5,569C 391.664,571.084 387.997,573.417 384.5,576C 379.634,581.695 374.634,587.195 369.5,592.5C 368.833,592.5 368.167,592.5 367.5,592.5C 373.356,583.293 380.689,575.46 389.5,569C 394.798,565.243 400.465,564.577 406.5,567C 417.892,572.56 426.892,580.727 433.5,591.5 Z"/></g>
<g><path style="opacity:1" fill="#fefefe" d="M 431.5,592.5 C 437.422,603.343 443.089,614.343 448.5,625.5C 449.987,629.145 451.487,632.812 453,636.5C 453.667,638.5 453.667,640.5 453,642.5C 449.631,646.037 446.131,649.371 442.5,652.5C 432.778,658.695 422.444,663.861 411.5,668C 404.255,670.726 396.921,671.059 389.5,669C 374.545,663.711 361.378,655.544 350,644.5C 348.085,639.307 348.585,634.307 351.5,629.5C 356.184,616.466 362.184,604.133 369.5,592.5C 374.634,587.195 379.634,581.695 384.5,576C 387.997,573.417 391.664,571.084 395.5,569C 401.671,568.054 407.338,569.388 412.5,573C 419.68,578.68 426.013,585.18 431.5,592.5 Z"/></g>
<g><path style="opacity:1" fill="#339ce7" d="M 369.5,567.5 C 370.5,567.5 371.5,567.5 372.5,567.5C 363.323,578.516 355.657,590.516 349.5,603.5C 348.833,603.167 348.167,602.833 347.5,602.5C 353.073,589.678 360.406,578.012 369.5,567.5 Z"/></g>
<g><path style="opacity:0.625" fill="#7f807f" d="M 718.5,578.5 C 721.644,579.172 724.644,580.172 727.5,581.5C 727.5,582.5 727.5,583.5 727.5,584.5C 722.31,585.628 719.31,583.628 718.5,578.5 Z"/></g>
<g><path style="opacity:1" fill="#349de7" d="M 524.5,567.5 C 524.5,568.833 525.167,569.5 526.5,569.5C 524.228,579.672 520.228,589.005 514.5,597.5C 514.672,596.508 514.338,595.842 513.5,595.5C 518.326,586.531 521.993,577.198 524.5,567.5 Z"/></g>
<g><path style="opacity:0.735" fill="#808080" d="M 74.5,585.5 C 76.7659,585.141 78.5993,585.808 80,587.5C 79.3988,590.257 78.5655,593.091 77.5,596C 77.8336,599.392 79.5002,600.226 82.5,598.5C 83.4922,594.217 83.8256,589.884 83.5,585.5C 84.5,585.5 85.5,585.5 86.5,585.5C 86.6658,590.179 86.4992,594.845 86,599.5C 82.276,603.477 78.6093,603.477 75,599.5C 74.034,595.882 74.534,592.549 76.5,589.5C 75.1468,588.476 74.4802,587.143 74.5,585.5 Z"/></g>
<g><path style="opacity:0.7" fill="#808080" d="M 90.5,585.5 C 97.4806,583.826 101.481,586.493 102.5,593.5C 100.836,602.111 96.1695,604.277 88.5,600C 91.4414,599.487 94.4414,598.82 97.5,598C 98.7946,595.199 98.7946,592.366 97.5,589.5C 94.7293,588.783 92.0626,588.449 89.5,588.5C 89.2907,587.914 88.9574,587.414 88.5,587C 89.4158,586.722 90.0825,586.222 90.5,585.5 Z"/></g>
<g><path style="opacity:0.723" fill="#7f7f7f" d="M 104.5,585.5 C 108.007,584.994 111.174,585.66 114,587.5C 114.499,592.155 114.666,596.821 114.5,601.5C 113.5,601.5 112.5,601.5 111.5,601.5C 111.666,597.486 111.499,593.486 111,589.5C 108.526,588.535 106.026,588.368 103.5,589C 103.043,588.586 102.709,588.086 102.5,587.5C 103.243,586.818 103.909,586.151 104.5,585.5 Z"/></g>
<g><path style="opacity:0.694" fill="#7f7f7f" d="M 712.5,585.5 C 714.792,585.244 716.959,585.577 719,586.5C 719.667,587.833 719.667,589.167 719,590.5C 717.924,592.067 717.091,593.734 716.5,595.5C 717.125,598.986 718.958,599.986 722,598.5C 722.167,597.333 722.333,596.167 722.5,595C 720.173,591.911 720.173,588.911 722.5,586C 723.833,585.333 725.167,585.333 726.5,586C 725.426,586.739 724.759,587.739 724.5,589C 725.562,592.789 725.729,596.623 725,600.5C 716.664,604.169 712.997,601.502 714,592.5C 717.708,589.341 717.208,588.008 712.5,588.5C 712.5,587.5 712.5,586.5 712.5,585.5 Z"/></g>
<g><path style="opacity:0.643" fill="#808080" d="M 729.5,585.5 C 732.685,585.02 735.519,585.686 738,587.5C 739.379,592.036 739.879,596.703 739.5,601.5C 738.167,601.5 736.833,601.5 735.5,601.5C 735.5,597.167 735.5,592.833 735.5,588.5C 733.08,588.292 730.747,588.626 728.5,589.5C 728.167,589 727.833,588.5 727.5,588C 728.056,586.989 728.722,586.156 729.5,585.5 Z"/></g>
<g><path style="opacity:0.691" fill="#808080" d="M 743.5,585.5 C 745.527,585.338 747.527,585.505 749.5,586C 748.692,587.706 747.359,588.539 745.5,588.5C 745.5,589.5 745.5,590.5 745.5,591.5C 747.716,591.275 749.383,592.108 750.5,594C 748.866,594.494 747.199,594.66 745.5,594.5C 745.416,599.694 747.416,600.694 751.5,597.5C 752.433,593.571 752.766,589.571 752.5,585.5C 753.5,585.5 754.5,585.5 755.5,585.5C 755.666,589.846 755.499,594.179 755,598.5C 751.958,602.51 748.125,603.343 743.5,601C 740.966,598.253 740.966,595.587 743.5,593C 740.914,590.506 740.914,588.006 743.5,585.5 Z"/></g>
<g><path style="opacity:1" fill="#34a4e9" d="M 432.5,572.5 C 444.593,582.017 453.26,594.017 458.5,608.5C 458.158,609.338 457.492,609.672 456.5,609.5C 450.606,595.59 441.939,583.59 430.5,573.5C 431.492,573.672 432.158,573.338 432.5,572.5 Z"/></g>
<g><path style="opacity:1" fill="#33a5ea" d="M 264.5,573.5 C 265.167,573.5 265.833,573.5 266.5,573.5C 273.341,586.509 281.675,598.509 291.5,609.5C 291.158,610.338 290.492,610.672 289.5,610.5C 278.94,599.726 270.606,587.392 264.5,573.5 Z"/></g>
<g><path style="opacity:1" fill="#2c92e3" d="M 367.5,592.5 C 368.167,592.5 368.833,592.5 369.5,592.5C 362.184,604.133 356.184,616.466 351.5,629.5C 350.508,629.672 349.842,629.338 349.5,628.5C 353.426,615.314 359.426,603.314 367.5,592.5 Z"/></g>
<g><path style="opacity:1" fill="#2890e3" d="M 433.5,591.5 C 439.929,602.022 445.595,613.022 450.5,624.5C 450.158,625.338 449.492,625.672 448.5,625.5C 443.089,614.343 437.422,603.343 431.5,592.5C 432.492,592.672 433.158,592.338 433.5,591.5 Z"/></g>
<g><path style="opacity:1" fill="#38bbf2" d="M 513.5,595.5 C 514.338,595.842 514.672,596.508 514.5,597.5C 505.534,612.64 493.867,625.473 479.5,636C 474.831,639.624 470.664,639.124 467,634.5C 463.201,626.265 459.701,617.931 456.5,609.5C 457.492,609.672 458.158,609.338 458.5,608.5C 462.214,616.773 466.048,625.107 470,633.5C 470.739,634.574 471.739,635.241 473,635.5C 478.415,633.21 483.248,630.043 487.5,626C 497.156,616.524 505.823,606.357 513.5,595.5 Z"/></g>
<g><path style="opacity:1" fill="#39bef2" d="M 347.5,602.5 C 348.167,602.833 348.833,603.167 349.5,603.5C 346.31,613.586 342.81,623.586 339,633.5C 334.04,638.604 328.207,639.771 321.5,637C 308.623,630.743 297.957,621.909 289.5,610.5C 290.492,610.672 291.158,610.338 291.5,609.5C 300.599,620.429 311.599,628.929 324.5,635C 332.126,636.937 336.959,634.104 339,626.5C 341.238,618.17 344.072,610.17 347.5,602.5 Z"/></g>
<g><path style="opacity:1" fill="#37afed" d="M 450.5,624.5 C 454.245,630.239 456.078,636.572 456,643.5C 452.309,647.689 448.143,651.356 443.5,654.5C 443.167,653.833 442.833,653.167 442.5,652.5C 446.131,649.371 449.631,646.037 453,642.5C 453.667,640.5 453.667,638.5 453,636.5C 451.487,632.812 449.987,629.145 448.5,625.5C 449.492,625.672 450.158,625.338 450.5,624.5 Z"/></g>
<g><path style="opacity:0.987" fill="#fccdc3" d="M 102.5,675.5 C 102.5,674.5 102.5,673.5 102.5,672.5C 107.29,669.942 112.124,667.275 117,664.5C 121.113,658.609 124.446,652.276 127,645.5C 125.893,652.821 123.56,659.821 120,666.5C 115.17,671.507 109.337,674.507 102.5,675.5 Z"/></g>
<g><path style="opacity:0.999" fill="#fcccc3" d="M 726.5,672.5 C 727.11,673.391 727.443,674.391 727.5,675.5C 725.801,675.66 724.134,675.494 722.5,675C 710.24,670 703.74,660.833 703,647.5C 705.795,654.934 709.962,661.434 715.5,667C 719.538,668.352 723.205,670.186 726.5,672.5 Z"/></g>
<g><path style="opacity:1" fill="#fdd7d0" d="M 263.5,634.5 C 264.552,634.351 265.552,634.517 266.5,635C 285.112,650.644 305.112,664.311 326.5,676C 348.617,684.205 370.95,691.705 393.5,698.5C 392.833,698.833 392.167,699.167 391.5,699.5C 368.36,692.798 345.36,685.631 322.5,678C 304.818,666.493 287.485,654.493 270.5,642C 267.883,639.558 265.55,637.058 263.5,634.5 Z"/></g>
<g><path style="opacity:1" fill="#fdd7d0" d="M 537.5,635.5 C 539.028,635.517 539.528,636.184 539,637.5C 520.392,652.108 501.225,665.941 481.5,679C 457.642,686.045 433.976,693.545 410.5,701.5C 409.614,700.675 409.281,699.675 409.5,698.5C 436.812,692.229 463.145,683.062 488.5,671C 505.574,660.078 521.908,648.244 537.5,635.5 Z"/></g>
<g><path style="opacity:1" fill="#3cbff3" d="M 349.5,628.5 C 349.842,629.338 350.508,629.672 351.5,629.5C 348.585,634.307 348.085,639.307 350,644.5C 361.378,655.544 374.545,663.711 389.5,669C 396.921,671.059 404.255,670.726 411.5,668C 422.444,663.861 432.778,658.695 442.5,652.5C 442.833,653.167 443.167,653.833 443.5,654.5C 430.298,664.409 415.465,670.742 399,673.5C 379.183,669.759 362.183,660.759 348,646.5C 344.68,640.226 345.18,634.226 349.5,628.5 Z"/></g>
<g><path style="opacity:0.996" fill="#0765d3" d="M 514.5,861.5 C 512.373,862.149 510.373,862.483 508.5,862.5C 502.798,858.654 496.465,856.488 489.5,856C 427.5,855.333 365.5,855.333 303.5,856C 297.477,856.452 291.81,858.119 286.5,861C 282.332,864.336 278.332,867.836 274.5,871.5C 272.901,871.768 271.568,871.434 270.5,870.5C 276.391,860.697 285.058,854.53 296.5,852C 363.167,851.333 429.833,851.333 496.5,852C 503.565,853.364 509.565,856.53 514.5,861.5 Z"/></g>
<g><path style="opacity:0.61" fill="#101010" d="M 396.5,867.5 C 398.167,867.5 399.833,867.5 401.5,867.5C 401.5,869.833 401.5,872.167 401.5,874.5C 399.833,874.5 398.167,874.5 396.5,874.5C 396.5,872.167 396.5,869.833 396.5,867.5 Z"/></g>
<g><path style="opacity:0.997" fill="#0683dd" d="M 508.5,862.5 C 510.373,862.483 512.373,862.149 514.5,861.5C 520.755,865.97 525.088,871.97 527.5,879.5C 525.883,878.962 524.216,878.629 522.5,878.5C 518.952,872.279 514.285,866.945 508.5,862.5 Z"/></g>
<g><path style="opacity:0.799" fill="#101010" d="M 436.5,875.5 C 438.527,875.338 440.527,875.505 442.5,876C 443.617,877.892 445.284,878.725 447.5,878.5C 447.5,879.833 447.5,881.167 447.5,882.5C 440.972,884.28 437.305,881.947 436.5,875.5 Z"/></g>
<g><path style="opacity:0.789" fill="#101010" d="M 389.5,876.5 C 394.394,877.811 399.394,878.477 404.5,878.5C 404.5,879.833 404.5,881.167 404.5,882.5C 400.154,882.666 395.821,882.499 391.5,882C 390.139,880.416 389.472,878.582 389.5,876.5 Z"/></g>
<g><path style="opacity:0.838" fill="#101010" d="M 324.5,877.5 C 326.167,877.5 327.833,877.5 329.5,877.5C 329.666,885.174 329.5,892.841 329,900.5C 323.712,905.823 318.379,905.823 313,900.5C 312.501,895.177 312.334,889.844 312.5,884.5C 314.167,884.5 315.833,884.5 317.5,884.5C 317.334,889.179 317.501,893.845 318,898.5C 319.726,899.576 321.559,899.743 323.5,899C 324.48,891.921 324.813,884.755 324.5,877.5 Z"/></g>
<g><path style="opacity:0.775" fill="#101010" d="M 338.5,883.5 C 350.562,884.272 353.895,890.272 348.5,901.5C 344.24,904.68 339.573,905.347 334.5,903.5C 334.286,901.856 334.62,900.356 335.5,899C 344.895,900.943 347.561,897.61 343.5,889C 340.469,888.505 337.469,888.671 334.5,889.5C 333.933,886.089 335.266,884.089 338.5,883.5 Z"/></g>
<g><path style="opacity:0.807" fill="#101010" d="M 361.5,883.5 C 366.039,882.957 369.873,884.29 373,887.5C 373.499,892.823 373.666,898.156 373.5,903.5C 371.833,903.5 370.167,903.5 368.5,903.5C 368.803,898.57 368.469,893.737 367.5,889C 360.678,888.704 358.511,891.871 361,898.5C 362.825,899.103 364.659,899.77 366.5,900.5C 367.551,903.302 366.384,904.635 363,904.5C 355.882,902.54 353.215,897.874 355,890.5C 356.018,886.985 358.185,884.652 361.5,883.5 Z"/></g>
<g><path style="opacity:0.839" fill="#101010" d="M 388.5,883.5 C 392.355,882.845 395.188,884.179 397,887.5C 397.499,892.823 397.666,898.156 397.5,903.5C 395.833,903.5 394.167,903.5 392.5,903.5C 392.666,899.154 392.499,894.821 392,890.5C 389.731,887.946 387.398,887.946 385,890.5C 384.501,894.821 384.334,899.154 384.5,903.5C 382.833,903.5 381.167,903.5 379.5,903.5C 379.5,897.167 379.5,890.833 379.5,884.5C 381.591,884.318 383.591,884.652 385.5,885.5C 386.739,885.058 387.739,884.391 388.5,883.5 Z"/></g>
<g><path style="opacity:0.757" fill="#101010" d="M 409.5,883.5 C 417.354,882.362 421.687,885.695 422.5,893.5C 422.576,900.386 419.242,904.053 412.5,904.5C 409.671,904.452 407.337,903.452 405.5,901.5C 406.715,898.428 408.882,897.761 412,899.5C 413.658,899.325 414.991,898.658 416,897.5C 418.114,889.495 415.281,886.828 407.5,889.5C 404.719,886.39 405.386,884.39 409.5,883.5 Z"/></g>
<g><path style="opacity:0.8" fill="#101010" d="M 435.5,883.5 C 438.862,883.07 441.695,884.07 444,886.5C 444.499,892.157 444.666,897.824 444.5,903.5C 442.833,903.5 441.167,903.5 439.5,903.5C 439.5,898.5 439.5,893.5 439.5,888.5C 436.956,888.104 434.789,888.771 433,890.5C 432.501,894.821 432.334,899.154 432.5,903.5C 430.5,903.5 428.5,903.5 426.5,903.5C 426.5,897.167 426.5,890.833 426.5,884.5C 428.591,884.318 430.591,884.652 432.5,885.5C 433.739,885.058 434.739,884.391 435.5,883.5 Z"/></g>
<g><path style="opacity:0.764" fill="#101010" d="M 456.5,883.5 C 466.99,882.489 471.49,887.155 470,897.5C 466.732,904.259 461.565,906.092 454.5,903C 448.955,894.995 450.955,891.495 460.5,892.5C 460.5,893.833 460.5,895.167 460.5,896.5C 459.022,896.238 457.689,896.571 456.5,897.5C 458.915,900.128 461.415,900.128 464,897.5C 465.273,888.428 461.773,886.095 453.5,890.5C 452.447,889.562 451.78,888.395 451.5,887C 452.921,885.377 454.588,884.21 456.5,883.5 Z"/></g>
<g><path style="opacity:0.797" fill="#101010" d="M 480.5,883.5 C 489.992,883.444 493.492,888.111 491,897.5C 488.371,903.305 484.037,904.971 478,902.5C 476.359,896.578 474.526,890.745 472.5,885C 474.473,884.505 476.473,884.338 478.5,884.5C 479.533,889.63 481.033,894.63 483,899.5C 486.001,897.154 487.001,894.154 486,890.5C 484.599,888.808 482.766,888.141 480.5,888.5C 479.929,886.64 479.929,884.973 480.5,883.5 Z"/></g>
<g><path style="opacity:0.999" fill="#0785de" d="M 270.5,870.5 C 271.568,871.434 272.901,871.768 274.5,871.5C 271.319,876.709 269.319,882.375 268.5,888.5C 266.958,889.301 265.292,889.634 263.5,889.5C 263.685,882.269 266.018,875.936 270.5,870.5 Z"/></g>
<g><path style="opacity:0.973" fill="#069ee6" d="M 522.5,878.5 C 524.216,878.629 525.883,878.962 527.5,879.5C 529.252,885.664 529.918,891.997 529.5,898.5C 528.778,898.082 528.278,897.416 528,896.5C 526.855,897.684 525.688,897.684 524.5,896.5C 525.07,890.465 524.403,884.465 522.5,878.5 Z"/></g>
<g><path style="opacity:0.948" fill="#069fe6" d="M 268.5,888.5 C 267.657,894.944 268.324,901.277 270.5,907.5C 268.708,907.366 267.042,907.699 265.5,908.5C 263.817,902.301 263.151,895.968 263.5,889.5C 265.292,889.634 266.958,889.301 268.5,888.5 Z"/></g>
<g><path style="opacity:0.928" fill="#06c2f1" d="M 524.5,896.5 C 525.688,897.684 526.855,897.684 528,896.5C 528.278,897.416 528.778,898.082 529.5,898.5C 528.239,909.358 523.572,918.358 515.5,925.5C 513.833,924.833 512.167,924.167 510.5,923.5C 517.009,917.821 521.509,910.821 524,902.5C 524.495,900.527 524.662,898.527 524.5,896.5 Z"/></g>
<g><path style="opacity:0.89" fill="#06c4f2" d="M 270.5,907.5 C 279.871,925.69 294.871,933.69 315.5,931.5C 307.83,933.381 300.163,934.048 292.5,933.5C 279.359,929.694 270.359,921.361 265.5,908.5C 267.042,907.699 268.708,907.366 270.5,907.5 Z"/></g>
<g><path style="opacity:0.985" fill="#05d5f8" d="M 510.5,923.5 C 512.167,924.167 513.833,924.833 515.5,925.5C 510.02,930.24 503.687,933.407 496.5,935C 429.833,935.667 363.167,935.667 296.5,935C 294.942,934.79 293.609,934.29 292.5,933.5C 300.163,934.048 307.83,933.381 315.5,931.5C 373.501,931.667 431.501,931.5 489.5,931C 497.219,930.373 504.219,927.873 510.5,923.5 Z"/></g>
</svg>
