<?xml version="1.0" encoding="UTF-8"?>
<!DOCTYPE svg PUBLIC "-//W3C//DTD SVG 1.1//EN" "http://www.w3.org/Graphics/SVG/1.1/DTD/svg11.dtd">
<svg xmlns="http://www.w3.org/2000/svg" version="1.1" width="828px" height="976px" style="shape-rendering:geometricPrecision; text-rendering:geometricPrecision; image-rendering:optimizeQuality; fill-rule:evenodd; clip-rule:evenodd" xmlns:xlink="http://www.w3.org/1999/xlink">
<g><path style="opacity:0.99" fill="#00aaf3" d="M 439.5,365.5 C 438.448,365.351 437.448,365.517 436.5,366C 437.451,366.718 437.617,367.551 437,368.5C 435.49,366.792 433.99,365.126 432.5,363.5C 431.575,364.641 430.741,364.641 430,363.5C 427.539,367.725 425.873,367.392 425,362.5C 424.047,364.592 422.714,364.925 421,363.5C 417.091,367.712 413.758,367.379 411,362.5C 410.489,364.878 409.822,367.212 409,369.5C 408.5,369 408,368.5 407.5,368C 410.373,361.363 409.206,360.863 404,366.5C 403.667,365.833 403.333,365.167 403,364.5C 401.647,365.685 400.48,367.019 399.5,368.5C 397.729,367.965 397.396,367.131 398.5,366C 397.874,365.25 397.374,364.416 397,363.5C 395.352,364.717 393.519,365.55 391.5,366C 392.696,366.654 392.696,367.154 391.5,367.5C 390.749,366.624 390.249,365.624 390,364.5C 387.859,365.075 385.359,365.408 382.5,365.5C 382.543,361.107 382.043,360.774 381,364.5C 378.8,366.831 376.8,366.831 375,364.5C 374.333,365.833 373.667,367.167 373,368.5C 372.309,365.734 370.809,365.067 368.5,366.5C 366.185,365.84 364.519,364.507 363.5,362.5C 372.273,351.898 382.94,343.731 395.5,338C 403.708,336.735 411.042,338.735 417.5,344C 425.338,350.671 432.671,357.838 439.5,365.5 Z"/></g>
<g><path style="opacity:0.992" fill="#01adf3" d="M 439.5,365.5 C 440.833,367.167 442.167,368.833 443.5,370.5C 442.193,371.153 440.86,371.82 439.5,372.5C 438.28,371.289 437.113,371.289 436,372.5C 434.501,370.244 432.834,370.244 431,372.5C 429.296,372.026 427.462,371.859 425.5,372C 426.696,371.346 426.696,370.846 425.5,370.5C 423.93,370.694 422.43,370.694 421,370.5C 420.196,371.804 419.029,372.471 417.5,372.5C 413.954,371.603 410.621,371.603 407.5,372.5C 406.808,371.975 406.308,371.308 406,370.5C 404.434,369.939 403.101,370.606 402,372.5C 401.667,371.833 401.333,371.167 401,370.5C 399.667,371.167 398.333,371.833 397,372.5C 396,371.167 395,371.167 394,372.5C 393.333,369.833 392.667,369.833 392,372.5C 389.28,371.689 386.78,371.689 384.5,372.5C 383.459,370.009 382.626,370.009 382,372.5C 381.667,371.5 381.333,370.5 381,369.5C 379.541,372.443 377.874,372.776 376,370.5C 374.501,372.756 372.834,372.756 371,370.5C 369.715,370.95 368.548,371.617 367.5,372.5C 364.336,370.358 361.503,370.358 359,372.5C 357.699,372.361 356.866,371.695 356.5,370.5C 358.862,367.808 361.196,365.141 363.5,362.5C 364.519,364.507 366.185,365.84 368.5,366.5C 370.809,365.067 372.309,365.734 373,368.5C 373.667,367.167 374.333,365.833 375,364.5C 376.8,366.831 378.8,366.831 381,364.5C 382.043,360.774 382.543,361.107 382.5,365.5C 385.359,365.408 387.859,365.075 390,364.5C 390.249,365.624 390.749,366.624 391.5,367.5C 392.696,367.154 392.696,366.654 391.5,366C 393.519,365.55 395.352,364.717 397,363.5C 397.374,364.416 397.874,365.25 398.5,366C 397.396,367.131 397.729,367.965 399.5,368.5C 400.48,367.019 401.647,365.685 403,364.5C 403.333,365.167 403.667,365.833 404,366.5C 409.206,360.863 410.373,361.363 407.5,368C 408,368.5 408.5,369 409,369.5C 409.822,367.212 410.489,364.878 411,362.5C 413.758,367.379 417.091,367.712 421,363.5C 422.714,364.925 424.047,364.592 425,362.5C 425.873,367.392 427.539,367.725 430,363.5C 430.741,364.641 431.575,364.641 432.5,363.5C 433.99,365.126 435.49,366.792 437,368.5C 437.617,367.551 437.451,366.718 436.5,366C 437.448,365.517 438.448,365.351 439.5,365.5 Z"/></g>
<g><path style="opacity:0.994" fill="#01b2f4" d="M 443.5,370.5 C 449.049,376.722 453.382,383.722 456.5,391.5C 453.916,389.611 451.416,388.278 449,387.5C 447.271,389.434 445.271,389.434 443,387.5C 440.142,389.178 436.976,390.178 433.5,390.5C 433.167,389.833 432.833,389.167 432.5,388.5C 430.629,389.767 428.796,389.767 427,388.5C 426,389.167 425,389.833 424,390.5C 421.275,389.128 418.609,388.128 416,387.5C 414.39,387.13 412.89,387.797 411.5,389.5C 406.233,389.089 400.733,388.756 395,388.5C 393.691,390.891 392.691,390.891 392,388.5C 389.026,388.797 385.86,389.464 382.5,390.5C 380.659,388.167 378.492,387.834 376,389.5C 374.441,388.971 372.941,388.304 371.5,387.5C 370.389,388.611 369.055,389.278 367.5,389.5C 363.574,388.697 359.741,388.364 356,388.5C 355.692,389.308 355.192,389.975 354.5,390.5C 352.737,390.306 350.903,390.306 349,390.5C 348.676,388.431 347.842,388.098 346.5,389.5C 345.478,389.145 344.811,388.478 344.5,387.5C 347.755,381.255 351.755,375.589 356.5,370.5C 356.866,371.695 357.699,372.361 359,372.5C 361.503,370.358 364.336,370.358 367.5,372.5C 368.548,371.617 369.715,370.95 371,370.5C 372.834,372.756 374.501,372.756 376,370.5C 377.874,372.776 379.541,372.443 381,369.5C 381.333,370.5 381.667,371.5 382,372.5C 382.626,370.009 383.459,370.009 384.5,372.5C 386.78,371.689 389.28,371.689 392,372.5C 392.667,369.833 393.333,369.833 394,372.5C 395,371.167 396,371.167 397,372.5C 398.333,371.833 399.667,371.167 401,370.5C 401.333,371.167 401.667,371.833 402,372.5C 403.101,370.606 404.434,369.939 406,370.5C 406.308,371.308 406.808,371.975 407.5,372.5C 410.621,371.603 413.954,371.603 417.5,372.5C 419.029,372.471 420.196,371.804 421,370.5C 422.43,370.694 423.93,370.694 425.5,370.5C 426.696,370.846 426.696,371.346 425.5,372C 427.462,371.859 429.296,372.026 431,372.5C 432.834,370.244 434.501,370.244 436,372.5C 437.113,371.289 438.28,371.289 439.5,372.5C 440.86,371.82 442.193,371.153 443.5,370.5 Z"/></g>
<g><path style="opacity:0.994" fill="#02b8f6" d="M 344.5,387.5 C 344.811,388.478 345.478,389.145 346.5,389.5C 347.842,388.098 348.676,388.431 349,390.5C 350.903,390.306 352.737,390.306 354.5,390.5C 355.192,389.975 355.692,389.308 356,388.5C 359.741,388.364 363.574,388.697 367.5,389.5C 369.055,389.278 370.389,388.611 371.5,387.5C 372.941,388.304 374.441,388.971 376,389.5C 378.492,387.834 380.659,388.167 382.5,390.5C 385.86,389.464 389.026,388.797 392,388.5C 392.691,390.891 393.691,390.891 395,388.5C 400.733,388.756 406.233,389.089 411.5,389.5C 412.89,387.797 414.39,387.13 416,387.5C 418.609,388.128 421.275,389.128 424,390.5C 425,389.833 426,389.167 427,388.5C 428.796,389.767 430.629,389.767 432.5,388.5C 432.833,389.167 433.167,389.833 433.5,390.5C 436.976,390.178 440.142,389.178 443,387.5C 445.271,389.434 447.271,389.434 449,387.5C 451.416,388.278 453.916,389.611 456.5,391.5C 458.407,396.718 457.074,401.051 452.5,404.5C 451.12,403.294 449.953,403.627 449,405.5C 446.026,405.203 442.86,404.536 439.5,403.5C 438.459,405.991 437.626,405.991 437,403.5C 436.333,404.167 435.667,404.833 435,405.5C 433.293,404.541 431.459,403.875 429.5,403.5C 427.332,405.455 424.998,406.121 422.5,405.5C 421.353,405.182 420.519,404.516 420,403.5C 419.667,404.167 419.333,404.833 419,405.5C 417.333,405.5 415.667,405.5 414,405.5C 411.92,403.027 409.754,403.027 407.5,405.5C 406.522,405.023 405.689,404.357 405,403.5C 402.624,405.661 399.957,405.661 397,403.5C 393.705,406.017 390.371,406.017 387,403.5C 384.888,405.922 382.888,405.922 381,403.5C 377.435,405.563 373.768,405.563 370,403.5C 369.692,404.308 369.192,404.975 368.5,405.5C 366.689,404.264 364.856,404.264 363,405.5C 361.739,405.241 360.739,404.574 360,403.5C 356.518,404.999 353.185,405.665 350,405.5C 348.67,404.418 347.17,403.751 345.5,403.5C 340.634,398.44 340.3,393.107 344.5,387.5 Z"/></g>
<g><path style="opacity:0.991" fill="#02bef7" d="M 345.5,403.5 C 347.17,403.751 348.67,404.418 350,405.5C 353.185,405.665 356.518,404.999 360,403.5C 360.739,404.574 361.739,405.241 363,405.5C 364.856,404.264 366.689,404.264 368.5,405.5C 369.192,404.975 369.692,404.308 370,403.5C 373.768,405.563 377.435,405.563 381,403.5C 382.888,405.922 384.888,405.922 387,403.5C 390.371,406.017 393.705,406.017 397,403.5C 399.957,405.661 402.624,405.661 405,403.5C 405.689,404.357 406.522,405.023 407.5,405.5C 409.754,403.027 411.92,403.027 414,405.5C 415.667,405.5 417.333,405.5 419,405.5C 419.333,404.833 419.667,404.167 420,403.5C 420.519,404.516 421.353,405.182 422.5,405.5C 424.998,406.121 427.332,405.455 429.5,403.5C 431.459,403.875 433.293,404.541 435,405.5C 435.667,404.833 436.333,404.167 437,403.5C 437.626,405.991 438.459,405.991 439.5,403.5C 442.86,404.536 446.026,405.203 449,405.5C 449.953,403.627 451.12,403.294 452.5,404.5C 448.654,410.862 444.321,416.862 439.5,422.5C 437.965,420.948 436.131,419.615 434,418.5C 433.311,419.357 432.478,420.023 431.5,420.5C 423.987,419.509 415.987,419.509 407.5,420.5C 407.704,419.471 407.204,418.471 406,417.5C 403.5,419.536 400.833,419.87 398,418.5C 397.692,419.308 397.192,419.975 396.5,420.5C 386.264,420.306 376.097,420.306 366,420.5C 365.374,418.009 364.541,418.009 363.5,420.5C 362.5,419.833 361.5,419.167 360.5,418.5C 359.337,419.056 358.337,419.389 357.5,419.5C 353.025,414.563 349.025,409.23 345.5,403.5 Z"/></g>
<g><path style="opacity:0.991" fill="#03c4f8" d="M 439.5,422.5 C 436.167,426.833 432.833,431.167 429.5,435.5C 425.327,435.694 421.327,435.361 417.5,434.5C 415.079,436.342 412.579,437.009 410,436.5C 408.395,435.899 407.062,434.899 406,433.5C 404.148,435.23 404.314,436.396 406.5,437C 406,437.167 405.5,437.333 405,437.5C 403.199,435.292 400.866,433.959 398,433.5C 396.542,434.747 395.042,434.747 393.5,433.5C 392.252,434.04 391.085,434.707 390,435.5C 389.333,432.833 388.667,432.833 388,435.5C 387.667,434.833 387.333,434.167 387,433.5C 386.333,434.833 385.667,434.833 385,433.5C 384.333,434.167 383.667,434.833 383,435.5C 381.318,435.193 379.652,434.86 378,434.5C 377.055,434.905 376.388,435.572 376,436.5C 374.483,433.066 372.65,433.066 370.5,436.5C 365.79,431.123 361.457,425.457 357.5,419.5C 358.337,419.389 359.337,419.056 360.5,418.5C 361.5,419.167 362.5,419.833 363.5,420.5C 364.541,418.009 365.374,418.009 366,420.5C 376.097,420.306 386.264,420.306 396.5,420.5C 397.192,419.975 397.692,419.308 398,418.5C 400.833,419.87 403.5,419.536 406,417.5C 407.204,418.471 407.704,419.471 407.5,420.5C 415.987,419.509 423.987,419.509 431.5,420.5C 432.478,420.023 433.311,419.357 434,418.5C 436.131,419.615 437.965,420.948 439.5,422.5 Z"/></g>
<g><path style="opacity:0.98" fill="#03cbfa" d="M 429.5,435.5 C 420.893,447.108 410.893,457.441 399.5,466.5C 388.495,457.828 378.828,447.828 370.5,436.5C 372.65,433.066 374.483,433.066 376,436.5C 376.388,435.572 377.055,434.905 378,434.5C 379.652,434.86 381.318,435.193 383,435.5C 383.667,434.833 384.333,434.167 385,433.5C 385.667,434.833 386.333,434.833 387,433.5C 387.333,434.167 387.667,434.833 388,435.5C 388.667,432.833 389.333,432.833 390,435.5C 391.085,434.707 392.252,434.04 393.5,433.5C 395.042,434.747 396.542,434.747 398,433.5C 400.866,433.959 403.199,435.292 405,437.5C 405.5,437.333 406,437.167 406.5,437C 404.314,436.396 404.148,435.23 406,433.5C 407.062,434.899 408.395,435.899 410,436.5C 412.579,437.009 415.079,436.342 417.5,434.5C 421.327,435.361 425.327,435.694 429.5,435.5 Z"/></g>
</svg>
